# xmcd CD database file
#
# Track frame offsets:
#	150
#	13380
#	29680
#	45416
#	60177
#	78449
#	94312
#	110626
#	122709
#	137123
#	153285
#	166627
#	178437
#	192832
#
# Disc length: 2845 seconds
#
# Revision: 0
# Processed by: cddbd v1.5.1PL2 Copyright (c) Steve Scherf et al.
# Submitted via: CDex 1.51
#
DISCID=b90b1b0e
DTITLE=Professor Longhair - Rock 'n' Roll Gumbo
DYEAR=1974
DGENRE=Blues
TTITLE0=Mardi Gras in New Orleans
TTITLE1=Hey now Baby
TTITLE2=Junco Partner
TTITLE3=Meet Me Tomorow Night
TTITLE4=Doin' It
TTITLE5=How Long Has That Train Been Gone
TTITLE6=Tipitina
TTITLE7=Rockin Pneumonia
TTITLE8=Jambalaya
TTITLE9=Mean Ol'World
TTITLE10=Tag-O-Lee
TTITLE11=Mess Around
TTITLE12=Rum And Coke
TTITLE13=(They Call Me) Dr. Professor Longhair
EXTD=YEAR: 1974
EXTT0=
EXTT1=
EXTT2=
EXTT3=
EXTT4=
EXTT5=
EXTT6=
EXTT7=
EXTT8=
EXTT9=
EXTT10=
EXTT11=
EXTT12=
EXTT13=
PLAYORDER=
